<svg xmlns="http://www.w3.org/2000/svg" width="30" height="30" fill="none"><path stroke="#D6B0F9" stroke-linecap="round" stroke-linejoin="round" stroke-width="2" d="M11.25 27.5a1.25 1.25 0 1 0 0-2.5 1.25 1.25 0 0 0 0 2.5ZM25 27.5a1.25 1.25 0 1 0 0-2.5 1.25 1.25 0 0 0 0 2.5Z"/><path fill="#BA7AF3" d="M1.25 1.25h5L9.6 17.988A2.5 2.5 0 0 0 12.1 20h12.15a2.5 2.5 0 0 0 2.5-2.012l2-10.488H7.5"/><path fill="#BA7AF3" d="M1.25 1.25h5L9.6 17.988A2.5 2.5 0 0 0 12.1 20h12.15a2.5 2.5 0 0 0 2.5-2.012l2-10.488H7.5"/></svg>