<svg xmlns="http://www.w3.org/2000/svg" width="1141" height="609" fill="none"><circle cx="65" cy="544" r="65" fill="#816EF4"/><circle cx="1110.5" cy="277.5" r="14.5" fill="#48E587"/><path fill="#806DF5" d="M533.135 9.265a4.001 4.001 0 0 1 3.713-1.49l15.226 2.177a3.999 3.999 0 0 1 3.146 2.47l5.728 14.275a4 4 0 0 1-.566 3.96l-9.498 12.097a4 4 0 0 1-3.712 1.49l-15.227-2.177a4 4 0 0 1-3.146-2.47l-5.728-14.274a4 4 0 0 1 .566-3.96l9.498-12.098Z"/><path fill="#FFA318" d="M56 53.803c21.333-6 65.6-.4 72 69.999-24 2-72-9.199-72-70Z"/><path fill="#2FB8E3" d="M1059.78 112.341c-2.47-22.024 10.23-64.798 80.74-59.708-1.92 24.007-20.74 69.558-80.74 59.708Z"/></svg>