<svg xmlns="http://www.w3.org/2000/svg" width="19" height="19" fill="none"><path fill="#fff" fill-rule="evenodd" d="M6.193 1.6c.842-.039 1.11-.047 3.254-.047 2.145 0 2.413.01 3.254.047.841.038 1.415.172 1.918.367.526.199 1.003.51 1.398.911.402.394.712.87.91 1.397.195.503.328 1.077.367 1.917.039.843.047 1.111.047 3.255s-.009 2.413-.047 3.254c-.038.84-.172 1.414-.367 1.916a3.874 3.874 0 0 1-.91 1.4 3.871 3.871 0 0 1-1.398.91c-.503.194-1.077.328-1.916.367-.843.038-1.111.047-3.256.047-2.144 0-2.412-.01-3.254-.047-.84-.038-1.414-.173-1.916-.368a3.874 3.874 0 0 1-1.399-.91 3.87 3.87 0 0 1-.91-1.398c-.195-.502-.329-1.076-.367-1.916-.04-.843-.048-1.111-.048-3.255s.01-2.413.048-3.254c.038-.841.172-1.415.366-1.918.199-.526.51-1.003.912-1.397a3.87 3.87 0 0 1 1.397-.911c.502-.195 1.076-.328 1.916-.367Zm6.444 1.421c-.832-.038-1.082-.046-3.19-.046-2.107 0-2.357.008-3.19.046-.77.035-1.187.164-1.466.272a2.451 2.451 0 0 0-.908.59 2.449 2.449 0 0 0-.59.908c-.108.278-.236.696-.271 1.466-.039.832-.046 1.082-.046 3.19 0 2.108.007 2.357.046 3.19.035.77.163 1.188.272 1.466.126.342.327.653.59.908.254.262.565.463.907.59.279.108.696.236 1.466.272.833.038 1.082.046 3.19.046 2.109 0 2.358-.008 3.19-.046.77-.035 1.188-.164 1.466-.272.369-.144.632-.314.908-.59a2.45 2.45 0 0 0 .59-.908c.108-.278.237-.696.272-1.466.038-.833.046-1.082.046-3.19 0-2.108-.008-2.358-.046-3.19-.035-.77-.163-1.188-.272-1.466a2.452 2.452 0 0 0-.59-.908 2.45 2.45 0 0 0-.908-.59c-.278-.108-.696-.237-1.466-.272Zm-4.198 8.86a2.633 2.633 0 1 0 1.896-4.914 2.634 2.634 0 0 0-1.896 4.913Zm-1.86-5.303a4.058 4.058 0 1 1 5.738 5.738 4.058 4.058 0 0 1-5.739-5.738Zm7.826-.584a.96.96 0 1 0-1.316-1.396.96.96 0 0 0 1.316 1.396Z" clip-rule="evenodd"/></svg>