<svg xmlns="http://www.w3.org/2000/svg" width="222" height="64" fill="none">
    <circle cx="25.92" cy="25.92" r="25.92" fill="url(#a)"/>
    <circle cx="44.608" cy="37.977" r="25.92" fill="url(#b)"/><path fill="#000000" d="M100.981 21.522c2.162 0 4.06.423 5.691 1.269 1.652.845 2.92 2.054 3.805 3.627.904 1.553 1.356 3.362 1.356 5.426s-.452 3.873-1.356 5.426c-.885 1.534-2.153 2.723-3.805 3.569-1.631.845-3.529 1.268-5.691 1.268h-7.196V21.522h7.196Zm-.148 17.075c2.163 0 3.834-.59 5.014-1.769 1.179-1.18 1.769-2.84 1.769-4.984 0-2.143-.59-3.814-1.769-5.013-1.18-1.22-2.851-1.829-5.014-1.829h-2.92v13.595h2.92Zm20.343 3.775c-1.337 0-2.536-.236-3.598-.707-1.062-.492-1.907-1.15-2.536-1.976a5.025 5.025 0 0 1-1.003-2.743h4.158c.079.63.384 1.15.914 1.563.551.413 1.229.62 2.035.62.787 0 1.396-.158 1.829-.472.452-.315.678-.718.678-1.21 0-.53-.275-.924-.826-1.18-.531-.275-1.386-.57-2.565-.884-1.219-.295-2.222-.6-3.008-.914a5.345 5.345 0 0 1-2.006-1.445c-.55-.649-.826-1.524-.826-2.625 0-.904.256-1.73.767-2.477.531-.747 1.278-1.337 2.241-1.77.984-.432 2.134-.648 3.451-.648 1.946 0 3.499.491 4.659 1.474 1.16.963 1.799 2.271 1.917 3.922h-3.951c-.059-.648-.335-1.16-.826-1.533-.472-.393-1.111-.59-1.917-.59-.747 0-1.327.138-1.74.413-.393.275-.59.659-.59 1.15 0 .55.275.973.826 1.268.55.276 1.406.56 2.566.855 1.179.295 2.152.6 2.919.915a4.977 4.977 0 0 1 1.976 1.474c.57.649.865 1.514.885 2.595 0 .944-.266 1.79-.796 2.537-.512.747-1.259 1.337-2.242 1.769-.963.413-2.094.62-3.391.62Zm11.912-18.55c-.728 0-1.337-.225-1.829-.678-.472-.471-.707-1.051-.707-1.74 0-.688.235-1.258.707-1.71.492-.472 1.101-.708 1.829-.708.727 0 1.327.236 1.799.708.491.452.737 1.022.737 1.71a2.32 2.32 0 0 1-.737 1.74c-.472.453-1.072.679-1.799.679Zm2.035 1.947v16.338h-4.129V25.769h4.129Zm10.478-.265c1.219 0 2.291.245 3.215.737.924.472 1.651 1.091 2.182 1.858v-2.33h4.158v16.456c0 1.514-.304 2.86-.914 4.04-.609 1.2-1.524 2.143-2.743 2.831-1.218.708-2.693 1.062-4.423 1.062-2.32 0-4.227-.54-5.721-1.622-1.475-1.081-2.31-2.556-2.507-4.424h4.099c.216.747.678 1.337 1.386 1.77.728.452 1.603.678 2.625.678 1.199 0 2.172-.364 2.919-1.091.748-.708 1.121-1.79 1.121-3.244v-2.536c-.531.767-1.268 1.405-2.212 1.917-.924.51-1.985.766-3.185.766a7.02 7.02 0 0 1-3.775-1.061c-1.14-.708-2.044-1.701-2.713-2.979-.648-1.297-.973-2.782-.973-4.453 0-1.651.325-3.116.973-4.394.669-1.278 1.563-2.261 2.684-2.95 1.14-.687 2.408-1.031 3.804-1.031Zm5.397 8.434c0-1.003-.196-1.858-.59-2.566-.393-.727-.924-1.278-1.592-1.651a4.176 4.176 0 0 0-2.153-.59c-.767 0-1.475.187-2.123.56-.649.374-1.18.924-1.593 1.652-.393.708-.59 1.553-.59 2.536 0 .983.197 1.848.59 2.595.413.728.944 1.288 1.593 1.681a4.12 4.12 0 0 0 2.123.59c.767 0 1.484-.187 2.153-.56a4.29 4.29 0 0 0 1.592-1.652c.394-.727.59-1.592.59-2.595Zm17.244-8.405c1.947 0 3.52.62 4.719 1.858 1.199 1.219 1.799 2.93 1.799 5.131v9.585h-4.129v-9.024c0-1.298-.324-2.29-.973-2.979-.649-.708-1.534-1.061-2.654-1.061-1.141 0-2.045.353-2.713 1.061-.649.688-.974 1.681-.974 2.979v9.024h-4.128V25.769h4.128v2.035a5.605 5.605 0 0 1 2.094-1.652 6.489 6.489 0 0 1 2.831-.619Z"/>
    <defs>
        <linearGradient id="a" x1="51.841" x2="-28.331" y1="-15.673" y2="25.92" gradientUnits="userSpaceOnUse"><stop stop-color="#0075FF"/><stop offset=".875" stop-color="#0075FF" stop-opacity="0"/></linearGradient><linearGradient id="b" x1="70.528" x2="-9.644" y1="-3.617" y2="37.977" gradientUnits="userSpaceOnUse"><stop stop-color="#0075FF"/><stop offset=".786" stop-color="#0075FF" stop-opacity="0"/></linearGradient>
    </defs>
</svg>