<svg xmlns="http://www.w3.org/2000/svg" width="30" height="30" fill="none"><path fill="#FAAD13" d="M15.275 2.5h-.55a2.5 2.5 0 0 0-2.5 2.5v.225a2.5 2.5 0 0 1-1.25 2.163l-.537.312a2.5 2.5 0 0 1-2.5 0l-.188-.1a2.5 2.5 0 0 0-3.412.912l-.275.476a2.5 2.5 0 0 0 .912 3.412l.188.125a2.5 2.5 0 0 1 1.25 2.15v.637a2.5 2.5 0 0 1-1.25 2.176l-.188.112a2.5 2.5 0 0 0-.912 3.412l.275.476a2.5 2.5 0 0 0 3.412.912l.188-.1a2.5 2.5 0 0 1 2.5 0l.537.313a2.5 2.5 0 0 1 1.25 2.162V25a2.5 2.5 0 0 0 2.5 2.5h.55a2.5 2.5 0 0 0 2.5-2.5v-.225a2.5 2.5 0 0 1 1.25-2.162l.538-.313a2.5 2.5 0 0 1 2.5 0l.188.1a2.5 2.5 0 0 0 3.412-.912l.275-.488a2.5 2.5 0 0 0-.912-3.413l-.188-.1a2.5 2.5 0 0 1-1.25-2.174v-.626a2.5 2.5 0 0 1 1.25-2.175l.188-.112a2.5 2.5 0 0 0 .912-3.412l-.275-.476A2.5 2.5 0 0 0 22.25 7.6l-.187.1a2.5 2.5 0 0 1-2.5 0l-.537-.313a2.5 2.5 0 0 1-1.25-2.162V5a2.5 2.5 0 0 0-2.5-2.5Z"/><path fill="#fff" d="M15 18.75a3.75 3.75 0 1 0 0-7.5 3.75 3.75 0 0 0 0 7.5Z"/></svg>