<svg xmlns="http://www.w3.org/2000/svg" width="17" height="15" fill="none"><path fill="#fff" d="M16.367 2.378c-.6.265-1.243.445-1.92.526a3.352 3.352 0 0 0 1.47-1.85 6.674 6.674 0 0 1-2.123.81 3.344 3.344 0 0 0-5.696 3.05 9.494 9.494 0 0 1-6.891-3.493 3.342 3.342 0 0 0-.058 3.259c.26.485.635.9 1.093 1.205a3.335 3.335 0 0 1-1.515-.418v.043A3.344 3.344 0 0 0 3.41 8.788a3.367 3.367 0 0 1-1.51.057 3.345 3.345 0 0 0 3.124 2.321 6.708 6.708 0 0 1-4.95 1.385 9.454 9.454 0 0 0 5.123 1.502c6.15 0 9.513-5.094 9.513-9.511a9.58 9.58 0 0 0-.01-.432 6.796 6.796 0 0 0 1.667-1.73l.001-.002Z"/></svg>